<?xml version="1.0" encoding="UTF-8"?>
<svg xmlns="http://www.w3.org/2000/svg" xmlns:xlink="http://www.w3.org/1999/xlink" width="24pt" height="24pt" viewBox="0 0 24 24" version="1.1">
<g id="surface1">
<path style=" stroke:none;fill-rule:nonzero;fill:rgb(0%,0%,0%);fill-opacity:1;" d="M 18.894531 11.421875 L 18.894531 8.164062 L 9.175781 8.164062 L 6.949219 6.417969 L 0 6.417969 L 0 21.746094 C 0 22.636719 0.726562 23.382812 1.617188 23.40625 C 1.632812 23.40625 1.648438 23.410156 1.660156 23.410156 C 1.703125 23.410156 1.746094 23.410156 1.789062 23.40625 C 2.667969 23.375 3.429688 22.773438 3.660156 21.914062 L 6.511719 11.421875 Z M 18.894531 11.421875 "/>
<path style=" stroke:none;fill-rule:nonzero;fill:rgb(0%,0%,0%);fill-opacity:1;" d="M 17.367188 1.996094 C 18.914062 1.996094 20.226562 3.03125 20.640625 4.449219 L 19.828125 3.820312 L 18.960938 4.933594 L 21.480469 6.890625 L 24 4.933594 L 23.132812 3.820312 L 22.121094 4.605469 C 21.742188 2.324219 19.753906 0.582031 17.367188 0.582031 C 14.710938 0.582031 12.546875 2.746094 12.546875 5.402344 L 13.960938 5.402344 C 13.960938 3.523438 15.488281 1.996094 17.367188 1.996094 Z M 17.367188 1.996094 "/>
<path style=" stroke:none;fill-rule:nonzero;fill:rgb(0%,0%,0%);fill-opacity:1;" d="M 5.023438 22.285156 C 4.914062 22.695312 4.730469 23.074219 4.484375 23.410156 L 19.277344 23.417969 C 20.011719 23.417969 20.65625 22.925781 20.847656 22.214844 L 23.394531 12.832031 L 7.59375 12.832031 Z M 9.089844 19.703125 L 18.140625 19.714844 L 18.136719 21.125 L 9.089844 21.117188 Z M 9.089844 19.703125 "/>
</g>
</svg>
