<?xml version="1.0" encoding="UTF-8"?>
<svg xmlns="http://www.w3.org/2000/svg" xmlns:xlink="http://www.w3.org/1999/xlink" width="24pt" height="24pt" viewBox="0 0 24 24" version="1.1">
<g id="surface1">
<path style=" stroke:none;fill-rule:nonzero;fill:rgb(0%,0%,0%);fill-opacity:1;" d="M 23.742188 5.4375 L 17.742188 0.1875 C 17.523438 -0.0078125 17.210938 -0.0546875 16.941406 0.0664062 C 16.671875 0.1875 16.5 0.457031 16.5 0.75 L 16.5 3 L 10.5 3 C 4.710938 3 0 7.710938 0 13.5 C 0 19.289062 4.710938 24 10.5 24 C 10.914062 24 11.25 23.664062 11.25 23.25 C 11.25 22.835938 10.914062 22.5 10.5 22.5 C 6.777344 22.5 3.75 19.472656 3.75 15.75 C 3.75 12.027344 6.777344 9 10.5 9 L 16.5 9 L 16.5 11.25 C 16.5 11.542969 16.671875 11.8125 16.941406 11.933594 C 17.207031 12.054688 17.523438 12.007812 17.742188 11.8125 L 23.742188 6.5625 C 23.90625 6.421875 24 6.214844 24 6 C 24 5.785156 23.90625 5.578125 23.742188 5.4375 Z M 23.742188 5.4375 "/>
</g>
</svg>
