<?xml version="1.0" encoding="UTF-8"?>
<svg xmlns="http://www.w3.org/2000/svg" xmlns:xlink="http://www.w3.org/1999/xlink" width="24pt" height="24pt" viewBox="0 0 24 24" version="1.1">
<g id="surface1">
<path style=" stroke:none;fill-rule:nonzero;fill:rgb(0%,0%,0%);fill-opacity:1;" d="M 23.996094 5.929688 C 23.984375 5.796875 23.929688 5.664062 23.839844 5.554688 C 23.804688 5.511719 24.164062 5.875 18.496094 0.207031 C 18.363281 0.0703125 18.179688 0 18 0 C 17.574219 0 2.535156 0 2.109375 0 C 0.945312 0 0 0.945312 0 2.109375 L 0 21.890625 C 0 23.054688 0.945312 24 2.109375 24 L 21.890625 24 C 23.054688 24 24 23.054688 24 21.890625 C 24 4.820312 24 5.984375 23.996094 5.929688 Z M 16.171875 1.40625 L 16.171875 6 C 16.171875 6.386719 15.855469 6.703125 15.46875 6.703125 L 14.578125 6.703125 L 14.578125 1.40625 Z M 13.171875 1.40625 L 13.171875 6.703125 L 6.65625 6.703125 C 6.269531 6.703125 5.953125 6.386719 5.953125 6 L 5.953125 1.40625 Z M 16.171875 15.046875 L 5.953125 15.046875 L 5.953125 14.15625 C 5.953125 13.769531 6.269531 13.453125 6.65625 13.453125 L 15.46875 13.453125 C 15.855469 13.453125 16.171875 13.769531 16.171875 14.15625 Z M 5.953125 22.59375 L 5.953125 16.453125 L 16.171875 16.453125 L 16.171875 22.59375 Z M 22.59375 21.890625 C 22.59375 22.277344 22.277344 22.59375 21.890625 22.59375 L 17.578125 22.59375 C 17.578125 21.675781 17.578125 15.199219 17.578125 14.15625 C 17.578125 12.992188 16.632812 12.046875 15.46875 12.046875 L 6.65625 12.046875 C 5.492188 12.046875 4.546875 12.992188 4.546875 14.15625 L 4.546875 22.59375 L 2.109375 22.59375 C 1.722656 22.59375 1.40625 22.277344 1.40625 21.890625 L 1.40625 2.109375 C 1.40625 1.722656 1.722656 1.40625 2.109375 1.40625 L 4.546875 1.40625 L 4.546875 6 C 4.546875 7.164062 5.492188 8.109375 6.65625 8.109375 L 15.46875 8.109375 C 16.632812 8.109375 17.578125 7.164062 17.578125 6 L 17.578125 1.40625 L 17.707031 1.40625 L 22.59375 6.292969 Z M 22.59375 21.890625 "/>
</g>
</svg>
