<?xml version="1.0" encoding="UTF-8"?>
<svg xmlns="http://www.w3.org/2000/svg" xmlns:xlink="http://www.w3.org/1999/xlink" width="24pt" height="24pt" viewBox="0 0 24 24" version="1.1">
<g id="surface1">
<path style=" stroke:none;fill-rule:nonzero;fill:rgb(1.176471%,0.392157%,1.568627%);fill-opacity:1;" d="M 9.722656 1.402344 C 9.449219 1.289062 9.136719 1.351562 8.925781 1.558594 L 0.214844 8.40625 C -0.0703125 8.6875 -0.0703125 9.152344 0.214844 9.433594 L 8.925781 16.246094 C 9.066406 16.386719 9.253906 16.460938 9.441406 16.460938 C 9.535156 16.460938 9.632812 16.441406 9.722656 16.40625 C 9.992188 16.292969 10.15625 16.027344 10.15625 15.734375 L 10.15625 11.652344 C 19.472656 11.652344 23.550781 14.28125 22.929688 22.652344 C 26.875 9.261719 19.300781 6.234375 10.15625 6.234375 L 10.15625 2.074219 C 10.15625 1.78125 9.992188 1.515625 9.722656 1.402344 Z M 9.722656 1.402344 "/>
</g>
</svg>
